# Blender v2.77 (sub 0) OBJ File: ''
# www.blender.org
mtllib tree2.mtl
o Cylinder.006_Cylinder.013
v 0.051316 -4.019476 -14.755099
v -0.369152 -4.019476 -14.992358
v 0.046554 -4.019476 -15.237864
v 0.051316 0.191147 -14.755098
v 0.048667 0.191147 -15.023634
v -0.182566 0.191147 -14.887072
v 0.467023 -4.019476 -15.000607
v 0.282550 0.191147 -14.891660
v 0.471785 -4.019476 -14.517840
v 0.285199 0.191147 -14.623125
v 0.056079 -4.019476 -14.272333
v 0.053966 0.191147 -14.486563
v -0.364390 -4.019476 -14.509592
v -0.179917 0.191147 -14.618536
v -0.429691 -1.914165 -15.026517
v -0.109147 -1.914165 -15.215823
v 0.215069 -1.914165 -15.032878
v 0.218741 -1.914165 -14.660625
v -0.101803 -1.914165 -14.471319
v -0.426019 -1.914165 -14.654264
vn 0.0000 -1.0000 0.0000
vn 0.0000 1.0000 0.0000
vn -0.5083 -0.0286 -0.8607
vn -0.5051 0.1159 -0.8552
vn 0.4909 0.0454 -0.8700
vn 0.4910 0.0426 -0.8701
vn 0.9929 0.1187 -0.0098
vn 0.9995 -0.0314 -0.0099
vn 0.5049 0.1187 0.8550
vn 0.5083 -0.0314 0.8606
vn -0.4909 0.0454 0.8700
vn -0.4910 0.0426 0.8701
vn -0.9932 0.1159 0.0098
vn -0.9995 -0.0286 0.0099
usemtl winter_wood
s 1
f 1//1 2//1 3//1
f 4//2 5//2 6//2
f 1//1 3//1 7//1
f 4//2 8//2 5//2
f 1//1 7//1 9//1
f 4//2 10//2 8//2
f 1//1 9//1 11//1
f 4//2 12//2 10//2
f 1//1 11//1 13//1
f 4//2 14//2 12//2
f 13//1 2//1 1//1
f 4//2 6//2 14//2
f 2//3 16//3 3//3
f 6//4 16//4 15//4
f 3//5 17//5 7//5
f 5//6 17//6 16//6
f 7//7 18//7 9//7
f 8//8 18//8 17//8
f 18//9 11//9 9//9
f 18//10 12//10 19//10
f 19//11 13//11 11//11
f 19//12 14//12 20//12
f 6//13 20//13 14//13
f 2//14 20//14 15//14
f 2//3 15//3 16//3
f 6//4 5//4 16//4
f 3//5 16//5 17//5
f 5//6 8//6 17//6
f 7//7 17//7 18//7
f 8//8 10//8 18//8
f 18//9 19//9 11//9
f 18//10 10//10 12//10
f 19//11 20//11 13//11
f 19//12 12//12 14//12
f 6//13 15//13 20//13
f 2//14 13//14 20//14
o Icosphere.005_Icosphere.020
v -1.746786 0.913523 -13.421046
v -1.918671 0.678430 -15.689962
v -1.390440 -0.706142 -14.794982
v -0.655626 -0.818763 -13.614585
v 0.461499 1.131721 -12.846365
v -0.770177 1.827673 -16.927425
v -0.359218 -0.806499 -15.656985
v 0.784687 -0.743931 -14.946980
v 1.230893 0.623711 -15.910052
v 1.652423 1.695527 -13.724752
v -0.764118 3.327272 -12.810438
v 0.319241 4.542984 -12.937476
v -2.414619 3.140079 -14.763179
v -1.908041 3.264692 -13.520437
v -1.706148 5.534616 -13.893715
v -2.090363 3.001033 -16.063980
v -1.883098 5.298298 -16.174866
v 0.285175 2.877308 -17.019917
v 1.429098 2.939888 -16.309917
v 0.243216 5.186044 -17.044903
v 1.438176 5.479989 -14.113439
v 1.935676 3.064500 -15.067176
v 1.503094 5.355680 -15.851461
v -0.638938 7.151536 -14.628489
v -0.258556 6.988412 -16.154451
v 0.398023 7.163645 -15.190404
vn -0.9497 -0.2960 0.1026
vn -0.7477 -0.5175 0.4161
vn -0.2214 -0.2449 0.9439
vn -0.4092 -0.4474 -0.7952
vn -0.5504 -0.5911 -0.5896
vn -0.1157 -0.9930 -0.0227
vn 0.4423 -0.6084 -0.6590
vn 0.2149 -0.3969 -0.8924
vn 0.0535 -0.9986 0.0018
vn 0.6451 -0.5699 0.5089
vn 0.5948 -0.5191 0.6138
vn 0.9455 -0.3248 -0.0231
vn -0.2355 -0.1472 0.9607
vn 0.0831 0.0301 0.9961
vn -0.9679 -0.2316 0.0973
vn -0.9233 -0.0472 0.3811
vn -0.9216 0.1414 0.3615
vn -0.6398 -0.1681 -0.7499
vn -0.5421 0.0084 -0.8403
vn 0.5253 -0.1882 -0.8298
vn 0.5273 0.0004 -0.8497
vn 0.2569 -0.3381 -0.9054
vn 0.9544 0.0835 0.2865
vn 0.9643 -0.2579 -0.0595
vn -0.5256 0.1834 0.8307
vn -0.2654 0.3311 0.9055
vn -0.5273 -0.0003 0.8497
vn -0.9657 0.0751 -0.2487
vn -0.9624 0.2677 0.0469
vn -0.9672 -0.1085 -0.2295
vn -0.0753 -0.0122 -0.9971
vn -0.3738 0.0805 -0.9240
vn 0.9809 0.1930 0.0228
vn 0.9236 0.0440 -0.3809
vn 0.6745 0.1176 -0.7288
vn 0.9216 -0.1413 -0.3615
vn 0.6732 0.1132 0.7307
vn 0.5788 0.0459 0.8142
vn -0.1611 0.4945 0.8541
vn -0.6973 0.6733 -0.2458
vn -0.0796 0.9889 -0.1255
vn -0.8330 0.5532 0.0073
vn -0.3410 0.3384 -0.8771
vn 0.8523 0.5230 -0.0056
vn 0.6239 0.5749 -0.5294
vn 0.5654 0.4865 -0.6661
vn 0.2915 0.5934 0.7502
vn 0.3563 0.6497 0.6715
usemtl yellow
s 1
f 21//15 22//15 23//15
f 23//16 24//16 21//16
f 25//17 21//17 24//17
f 22//18 26//18 27//18
f 27//19 23//19 22//19
f 27//20 24//20 23//20
f 28//21 27//21 29//21
f 26//22 29//22 27//22
f 28//23 24//23 27//23
f 30//24 25//24 24//24
f 24//25 28//25 30//25
f 29//26 30//26 28//26
f 31//27 21//27 25//27
f 25//28 32//28 31//28
f 33//29 22//29 21//29
f 21//30 34//30 33//30
f 35//31 33//31 34//31
f 22//32 36//32 26//32
f 37//33 26//33 36//33
f 29//34 38//34 39//34
f 40//35 39//35 38//35
f 38//36 29//36 26//36
f 41//37 30//37 42//37
f 42//38 30//38 29//38
f 34//39 31//39 35//39
f 32//40 35//40 31//40
f 31//41 34//41 21//41
f 36//42 33//42 37//42
f 35//43 37//43 33//43
f 33//44 36//44 22//44
f 38//45 26//45 40//45
f 37//46 40//46 26//46
f 43//47 41//47 42//47
f 42//48 39//48 43//48
f 40//49 43//49 39//49
f 39//50 42//50 29//50
f 32//51 30//51 41//51
f 30//52 32//52 25//52
f 44//53 35//53 32//53
f 37//54 44//54 45//54
f 46//55 45//55 44//55
f 44//56 37//56 35//56
f 45//57 40//57 37//57
f 46//58 41//58 43//58
f 43//59 45//59 46//59
f 45//60 43//60 40//60
f 44//61 32//61 41//61
f 41//62 46//62 44//62
