# Blender v2.77 (sub 0) OBJ File: ''
# www.blender.org
mtllib tree3.mtl
o Icosphere.001_Icosphere.015
v -1.514588 2.994965 17.775040
v -0.148550 1.928771 17.791687
v -0.489642 4.296185 18.789276
v 1.324172 4.171151 18.452587
v 1.465037 2.591785 16.905668
v -1.564910 2.787454 16.226357
v 0.183836 2.465418 15.480623
v -1.810508 5.047852 17.680431
v -0.375439 7.267914 17.655390
v -1.200716 5.496731 14.899008
v -1.341580 7.076096 16.445929
v 0.950558 4.231940 14.829749
v 2.172788 5.536064 16.354424
v 1.487921 6.555068 15.239242
v 1.170220 7.033542 17.660202
v 0.272006 7.739110 15.559906
v -1.408322 2.529465 18.382219
v -0.613288 3.673659 20.244522
v -2.721562 4.272953 19.790051
v 1.260929 3.961463 17.897800
v 1.325500 5.541072 19.848709
v 1.868508 5.996874 18.390474
v -0.868981 3.434405 16.350012
v -2.930391 4.525713 16.869749
v 0.893201 6.083237 16.081688
v -0.693950 6.311800 21.141603
v 1.003253 9.010375 19.658278
v -2.820339 7.452851 20.446341
v -3.795647 7.539211 18.137552
v -3.252638 7.995015 16.679317
v -1.233189 7.224286 15.386426
v 0.794424 9.263134 16.737976
v -1.058157 10.101683 20.178017
v -3.188066 9.574623 18.630228
v -1.313850 9.862427 16.283504
v -0.518815 11.006622 18.145807
vn -0.3277 -0.4066 0.8528
vn 0.1453 -0.3663 0.9191
vn 0.5641 -0.5516 0.6145
vn -0.6114 -0.7814 0.1246
vn -0.2793 -0.9257 -0.2551
vn 0.2894 -0.9407 -0.1768
vn -0.6619 -0.0610 0.7471
vn -0.4916 0.3269 0.8072
vn -0.9774 0.0287 -0.2096
vn -0.9748 0.1057 -0.1967
vn -0.9888 -0.1402 0.0509
vn -0.1874 -0.2670 -0.9453
vn -0.4213 -0.3527 -0.8355
vn 0.8521 -0.2868 -0.4378
vn 0.8120 -0.0861 -0.5773
vn 0.6676 -0.4947 -0.5563
vn 0.0508 0.3543 0.9337
vn 0.1937 0.2714 0.9428
vn -0.7234 0.4733 0.5028
vn 0.0620 0.1593 -0.9853
vn 0.8677 0.1754 0.4651
vn 0.9470 -0.1776 0.2675
vn 0.1440 0.9550 0.2592
vn -0.3251 0.9392 0.1107
vn -0.5641 0.5516 -0.6145
vn 0.0137 0.2744 -0.9615
vn 0.8305 0.5570 -0.0011
vn 0.6896 0.7223 -0.0523
vn -0.3359 -0.7318 0.5930
vn 0.6636 -0.5920 0.4574
vn 0.9137 -0.3301 0.2370
vn 0.4927 -0.8193 0.2930
vn -0.5033 -0.7318 -0.4595
vn -0.7969 -0.6041 0.0047
vn 0.5934 -0.4616 -0.6594
vn 0.4150 -0.8670 -0.2759
vn 0.4409 -0.2768 0.8538
vn 0.5627 0.0973 0.8209
vn -0.3987 -0.1972 0.8956
vn -0.2850 -0.3164 0.9048
vn -0.9205 -0.1061 -0.3760
vn -0.9553 -0.2924 0.0430
vn 0.1919 -0.2245 -0.9554
vn -0.3641 -0.2622 -0.8937
vn 0.9044 -0.1759 -0.3886
vn 0.9173 0.1076 -0.3835
vn -0.1919 0.2245 0.9554
vn 0.3641 0.2622 0.8937
vn -0.9044 0.1759 0.3886
vn -0.9173 -0.1076 0.3835
vn -0.4409 0.2768 -0.8538
vn -0.5627 -0.0973 -0.8209
vn 0.3987 0.1972 -0.8956
vn 0.2850 0.3164 -0.9048
vn 0.9205 0.1061 0.3760
vn 0.9553 0.2924 -0.0430
vn -0.4150 0.8670 0.2759
vn -0.5934 0.4616 0.6594
vn -0.6636 0.5920 -0.4574
vn -0.4927 0.8193 -0.2930
vn -0.9137 0.3301 -0.2370
vn 0.3359 0.7318 -0.5930
vn 0.5033 0.7318 0.4595
vn 0.7969 0.6041 -0.0047
usemtl yellow
s 1
f 1//1 2//1 3//1
f 4//2 3//2 2//2
f 2//3 5//3 4//3
f 6//4 2//4 1//4
f 7//5 2//5 6//5
f 5//6 2//6 7//6
f 8//7 1//7 3//7
f 9//8 8//8 3//8
f 6//9 8//9 10//9
f 11//10 10//10 8//10
f 8//11 6//11 1//11
f 7//12 10//12 12//12
f 10//13 7//13 6//13
f 5//14 12//14 13//14
f 14//15 13//15 12//15
f 12//16 5//16 7//16
f 15//17 9//17 3//17
f 3//18 4//18 15//18
f 9//19 11//19 8//19
f 10//20 14//20 12//20
f 13//21 15//21 4//21
f 13//22 4//22 5//22
f 16//23 9//23 15//23
f 16//24 11//24 9//24
f 10//25 11//25 16//25
f 16//26 14//26 10//26
f 13//27 14//27 15//27
f 16//28 15//28 14//28
f 17//29 18//29 19//29
f 18//30 20//30 21//30
f 22//31 21//31 20//31
f 18//32 17//32 20//32
f 23//33 17//33 24//33
f 19//34 24//34 17//34
f 25//35 20//35 23//35
f 20//36 17//36 23//36
f 26//37 18//37 21//37
f 27//38 26//38 21//38
f 19//39 26//39 28//39
f 26//40 19//40 18//40
f 24//41 29//41 30//41
f 29//42 24//42 19//42
f 31//43 25//43 23//43
f 31//44 23//44 24//44
f 20//45 25//45 22//45
f 32//46 22//46 25//46
f 33//47 28//47 26//47
f 27//48 33//48 26//48
f 29//49 28//49 34//49
f 28//50 29//50 19//50
f 30//51 35//51 31//51
f 30//52 31//52 24//52
f 25//53 31//53 32//53
f 35//54 32//54 31//54
f 21//55 22//55 27//55
f 32//56 27//56 22//56
f 36//57 34//57 33//57
f 33//58 34//58 28//58
f 30//59 34//59 35//59
f 36//60 35//60 34//60
f 34//61 30//61 29//61
f 32//62 35//62 36//62
f 27//63 36//63 33//63
f 36//64 27//64 32//64
o Cylinder.001_Cylinder.007
v -0.527339 -4.236353 17.897415
v -0.415197 -4.236353 18.475502
v -0.859765 -4.236353 18.861664
v -0.751488 5.295839 18.092115
v -0.913645 5.295839 18.562477
v -0.696785 5.295839 18.374107
v -1.416474 -4.236353 18.669739
v -1.185208 5.295839 18.468855
v -1.528617 -4.236353 18.091652
v -1.239911 5.295839 18.186865
v -1.084049 -4.236353 17.705490
v -1.023051 5.295839 17.998495
v -0.515972 -0.184983 18.283262
v -0.776269 -0.185194 18.508852
v -1.101371 -0.177689 18.396032
v -1.167592 -0.185196 18.058344
v -0.936757 -0.844160 17.815483
v -0.576140 -0.844160 17.939804
v -0.580322 -0.168266 17.943438
v -0.906637 -0.168266 17.830940
v -0.592331 1.249028 16.704367
v -0.357728 1.386461 16.844069
v -0.289967 0.904133 16.405621
v -0.030703 1.056012 16.560007
v 0.132166 2.748626 16.951889
v -0.127098 2.596748 16.797503
v -0.318077 3.008750 17.164280
vn 0.0000 -1.0000 0.0000
vn 0.0000 1.0000 0.0000
vn 0.6548 0.0522 0.7540
vn 0.6541 0.0521 0.7546
vn 0.6549 0.0522 0.7539
vn -0.3246 0.0887 0.9417
vn -0.3247 0.0887 0.9416
vn -0.9778 0.0887 0.1898
vn -0.9778 0.0887 0.1897
vn -0.6545 0.0528 -0.7542
vn -0.6504 0.0518 -0.7579
vn -0.6549 0.0529 -0.7539
vn 0.3259 0.0165 -0.9453
vn 0.9822 0.0355 -0.1845
vn 0.9811 0.0359 -0.1901
vn 0.9822 0.0355 -0.1843
vn 0.9826 0.0071 -0.1857
vn 0.6557 0.0091 0.7550
vn 0.6549 0.0091 0.7556
vn 0.6549 0.0091 0.7557
vn -0.3260 -0.0176 0.9452
vn -0.3281 -0.0175 0.9445
vn -0.9811 -0.0175 0.1927
vn -0.9815 -0.0176 0.1905
vn -0.9811 -0.0175 0.1928
vn -0.6572 0.0091 -0.7536
vn -0.6558 0.0091 -0.7549
vn -0.6573 0.0091 -0.7536
vn -0.6580 0.0465 -0.7516
vn 0.3257 0.0359 -0.9448
vn -0.6056 0.5208 0.6016
vn -0.2955 0.6274 0.7205
vn -0.6403 0.5025 0.5810
vn -0.8342 -0.2022 -0.5130
vn -0.9217 0.0147 -0.3877
vn -0.8085 -0.2457 -0.5347
vn 0.9175 0.0356 0.3960
vn 0.8035 0.2499 0.5403
vn 0.7766 0.2858 0.5615
vn 0.2808 -0.6586 -0.6981
vn 0.6109 -0.5763 -0.5428
vn 0.6407 -0.5630 -0.5221
vn 0.4322 0.1637 -0.8868
vn 0.4637 -0.2344 0.8544
vn 0.3497 -0.1983 0.9156
vn 0.3265 -0.1907 0.9258
vn -0.5488 0.2447 -0.7993
vn -0.6676 0.2782 -0.6906
vn -0.5305 0.2393 -0.8132
vn 0.9814 0.0164 -0.1911
vn 0.9798 0.0150 -0.1995
vn 0.9797 0.0149 -0.2002
vn 0.0428 0.6753 -0.7363
vn -0.4317 -0.1645 0.8869
vn 0.6540 0.0521 0.7547
vn -0.6500 0.0517 -0.7581
vn 0.9811 0.0359 -0.1903
vn 0.6557 0.0090 0.7549
vn -0.3259 -0.0176 0.9452
vn -0.9815 -0.0176 0.1904
vn -0.6558 0.0090 -0.7549
vn -0.2516 0.6358 0.7297
vn -0.9298 0.0498 -0.3648
vn 0.9282 0.0037 0.3721
vn 0.2443 -0.6619 -0.7087
vn 0.4859 -0.2412 0.8400
vn -0.6834 0.2824 -0.6731
vn 0.9816 0.0165 -0.1904
usemtl winter_wood
s 1
f 37//65 38//65 39//65
f 40//66 41//66 42//66
f 37//65 39//65 43//65
f 40//66 44//66 41//66
f 37//65 43//65 45//65
f 40//66 46//66 44//66
f 37//65 45//65 47//65
f 40//66 48//66 46//66
f 38//67 50//68 39//69
f 39//70 51//71 43//70
f 51//72 45//73 43//73
f 45//74 53//75 47//76
f 37//77 53//77 54//77
f 55//78 42//79 49//80
f 54//81 55//81 49//81
f 42//82 50//83 49//84
f 41//85 51//86 50//86
f 51//87 46//88 52//89
f 52//90 48//91 56//92
f 52//93 56//93 53//93
f 40//94 56//94 48//94
f 57//95 55//96 58//97
f 59//98 56//99 57//100
f 55//101 60//102 58//103
f 54//104 59//105 60//106
f 60//107 62//107 61//107
f 58//108 61//109 63//110
f 57//111 62//112 59//113
f 38//114 54//115 49//116
f 63//117 61//117 62//117
f 57//118 58//118 63//118
f 38//67 49//119 50//68
f 39//70 50//71 51//71
f 51//72 52//72 45//73
f 45//74 52//120 53//75
f 37//77 47//77 53//77
f 55//78 40//121 42//79
f 42//82 41//122 50//83
f 41//85 44//123 51//86
f 51//87 44//124 46//88
f 52//90 46//125 48//91
f 40//94 55//94 56//94
f 57//95 56//126 55//96
f 59//98 53//127 56//99
f 55//101 54//128 60//102
f 54//104 53//129 59//105
f 60//107 59//107 62//107
f 58//108 60//130 61//109
f 57//111 63//131 62//112
f 38//114 37//132 54//115
